<svg viewBox="0 0 120 120" xmlns="http://www.w3.org/2000/svg">
  <defs>
    <!-- Gradiente para todas las almohadillas -->
    <radialGradient id="pawGradient" cx="50%" cy="40%" r="60%">
      <stop offset="0%" style="stop-color:#D2691E;stop-opacity:1" />
      <stop offset="100%" style="stop-color:#B8860B;stop-opacity:1" />
    </radialGradient>
    
    <!-- Sombra suave -->
    <filter id="softShadow">
      <feDropShadow dx="2" dy="4" stdDeviation="3" flood-color="#000" flood-opacity="0.15"/>
    </filter>
  </defs>
  
  <!-- Almohadilla principal (grande) -->
  <ellipse cx="60" cy="80" rx="35" ry="30" fill="url(#pawGradient)" filter="url(#softShadow)"/>
  
  <!-- Deditos superiores más separados -->
  <!-- Dedo izquierdo -->
  <ellipse cx="25" cy="30" rx="10" ry="15" fill="url(#pawGradient)" filter="url(#softShadow)" transform="rotate(-25 25 30)"/>
  
  <!-- Dedo centro-izquierdo -->
  <ellipse cx="45" cy="15" rx="11" ry="16" fill="url(#pawGradient)" filter="url(#softShadow)" transform="rotate(-8 45 15)"/>
  
  <!-- Dedo centro-derecho -->
  <ellipse cx="75" cy="15" rx="11" ry="16" fill="url(#pawGradient)" filter="url(#softShadow)" transform="rotate(8 75 15)"/>
  
  <!-- Dedo derecho -->
  <ellipse cx="95" cy="30" rx="10" ry="15" fill="url(#pawGradient)" filter="url(#softShadow)" transform="rotate(25 95 30)"/>
  
  <!-- Brillos en las almohadillas -->
  <ellipse cx="55" cy="70" rx="8" ry="6" fill="#ffffff" opacity="0.4"/>
  <ellipse cx="23" cy="26" rx="2.5" ry="3" fill="#ffffff" opacity="0.5"/>
  <ellipse cx="43" cy="12" rx="2.5" ry="3.5" fill="#ffffff" opacity="0.5"/>
  <ellipse cx="77" cy="12" rx="2.5" ry="3.5" fill="#ffffff" opacity="0.5"/>
  <ellipse cx="97" cy="26" rx="2.5" ry="3" fill="#ffffff" opacity="0.5"/>
  
  <!-- Textura suave en las almohadillas -->
  <g opacity="0.1">
    <circle cx="60" cy="80" r="15" fill="none" stroke="#A0522D" stroke-width="0.5"/>
    <circle cx="25" cy="30" r="5" fill="none" stroke="#A0522D" stroke-width="0.5"/>
    <circle cx="45" cy="15" r="5.5" fill="none" stroke="#A0522D" stroke-width="0.5"/>
    <circle cx="75" cy="15" r="5.5" fill="none" stroke="#A0522D" stroke-width="0.5"/>
    <circle cx="95" cy="30" r="5" fill="none" stroke="#A0522D" stroke-width="0.5"/>
  </g>
</svg>